#!OML:ASF G:\ViconDB\ViconDB\414\test\team2\shane.ASF
:FULLY-SPECIFIED
:DEGREES
204
root 2.52853 16.2088 -4.11962 -11.6595 -1.60189 -1.12448
lowerback 9.00237 0.920851 0.210827
upperback 7.1046 1.24717 -1.04944
thorax 2.35461 0.65829 -1.28656
lowerneck -10.1882 -1.45793 -7.529
upperneck 46.1409 3.45415 -6.95538
head 19.9614 -0.884754 -1.49694
rclavicle 2.03257e-014 2.78299e-015
rhumerus -18.2691 -5.84653 -51.4636
rradius 116.678
rwrist 158.386
rhand -10.0505 14.8435
rfingers 7.12502
rthumb 15.935 -14.521
lclavicle 9.74045e-015 3.97569e-015
lhumerus -44.3381 -35.4041 95.6324
lradius 41.0039
lwrist -17.2176
lhand -38.6929 5.12023
lfingers 7.12502
lthumb -11.7075 34.7731
rfemur -1.68034 -11.7726 10.7123
rtibia 75.201
rfoot -12.353 3.12007
rtoes -15.3111
lfemur -2.97762 8.85204 -13.3889
ltibia 41.916
lfoot -30.1002 -8.17098
ltoes -5.13915
205
root 2.52698 16.1785 -3.94447 -11.9985 -1.57339 -1.22203
lowerback 9.17486 0.830159 0.204832
upperback 7.24703 1.12701 -1.10493
thorax 2.408 0.599709 -1.33439
lowerneck -9.92576 -1.5188 -7.57402
upperneck 46.5194 3.35324 -6.9263
head 20.1524 -0.941757 -1.51747
rclavicle 2.03257e-014 2.78299e-015
rhumerus -18.2691 -5.84653 -51.4636
rradius 116.678
rwrist 158.386
rhand -10.0505 14.8435
rfingers 7.12502
rthumb 15.935 -14.521
lclavicle 4.72114e-015 -1.35174e-014
lhumerus -43.8627 -36.2883 95.4489
lradius 40.9072
lwrist -17.2176
lhand -38.5871 5.27686
lfingers 7.12502
lthumb -11.6055 34.9355
rfemur -2.94924 -12.0006 11.1727
rtibia 75.2405
rfoot -13.7994 2.9501
rtoes -16.0897
lfemur -1.86188 8.88565 -13.0728
ltibia 41.9584
lfoot -30.8618 -8.10459
ltoes -5.43962
206
root 2.52581 16.1598 -3.76302 -12.2814 -1.58802 -1.20781
lowerback 9.29046 0.789004 0.0424165
upperback 7.40351 1.06251 -1.13401
thorax 2.50515 0.562375 -1.26973
lowerneck -9.77424 -1.54328 -7.86571
upperneck 46.7508 3.24587 -6.58995
head 20.2561 -1.00227 -1.32719
rclavicle 2.03257e-014 2.78299e-015
rhumerus -18.2691 -5.84653 -51.4636
rradius 116.678
rwrist 158.386
rhand -10.0505 14.8435
rfingers 7.12502
rthumb 15.935 -14.521
lclavicle -6.16232e-015 2.38542e-015
lhumerus -43.1302 -36.3197 94.9152
lradius 40.6106
lwrist -18.7061
lhand -38.8228 5.24837
lfingers 7.12502
lthumb -11.8327 34.8941
rfemur -4.23888 -12.0721 11.5834
rtibia 74.9934
rfoot -14.8788 2.68053
rtoes -15.5277
lfemur -0.733345 8.84048 -12.9025
ltibia 41.8338
lfoot -31.4731 -8.1695
ltoes -5.59652
207
root 2.52142 16.1482 -3.58085 -12.4636 -1.51383 -1.53549
lowerback 9.34353 0.643957 0.189067
upperback 7.54597 0.879751 -1.0966
thorax 2.62357 0.476323 -1.30071
lowerneck -9.7554 -1.55644 -7.77207
upperneck 46.859 3.22561 -6.66168
head 20.3324 -1.01028 -1.39357
rclavicle 2.03257e-014 2.78299e-015
rhumerus -18.2691 -5.84653 -51.4636
rradius 116.678
rwrist 158.386
rhand -10.0505 14.8435
rfingers 7.12502
rthumb 15.935 -14.521
lclavicle -1.02374e-014 3.97569e-015
lhumerus -42.5651 -36.1117 94.3088
lradius 40.6942
lwrist -19.2801
lhand -38.8976 5.42877
lfingers 7.12502
lthumb -11.9049 35.0703
rfemur -5.52949 -12.3562 12.3837
rtibia 74.4314
rfoot -15.7736 2.27461
rtoes -14.9756
lfemur 0.333081 8.69456 -12.4016
ltibia 41.5279
lfoot -32.0042 -8.19296
ltoes -5.82795
208
root 2.5215 16.1488 -3.39826 -12.483 -1.2421 -1.50591
lowerback 9.39495 0.504861 0.116678
upperback 7.55337 0.68984 -1.06576
thorax 2.59705 0.377192 -1.21575
lowerneck -9.62081 -1.5808 -7.96868
upperneck 46.8709 3.24664 -6.70938
head 20.309 -1.04232 -1.3789
rclavicle 2.03257e-014 2.78299e-015
rhumerus -18.2691 -5.84653 -51.4636
rradius 116.678
rwrist 158.386
rhand -10.0505 14.8435
rfingers 7.12502
rthumb 15.935 -14.521
lclavicle 6.65929e-015 -7.15625e-015
lhumerus -42.135 -35.7023 94.157
lradius 40.771
lwrist -19.1287
lhand -38.7347 5.43313
lfingers 7.12502
lthumb -11.7478 35.0837
rfemur -6.91045 -12.79 12.677
rtibia 73.5841
rfoot -17.082 1.88884
rtoes -15.435
lfemur 1.33856 8.3786 -12.4477
ltibia 40.9686
lfoot -32.4938 -7.97352
ltoes -6.24918
209
root 2.52128 16.1607 -3.21151 -12.4064 -1.00349 -1.65317
lowerback 9.27248 0.386822 0.287787
upperback 7.53528 0.544129 -0.996769
thorax 2.64262 0.309517 -1.22929
lowerneck -9.36703 -1.61438 -8.21491
upperneck 46.714 3.20762 -6.69931
head 20.1224 -1.08948 -1.32257
rclavicle 2.03257e-014 2.78299e-015
rhumerus -18.2691 -5.84653 -51.4636
rradius 116.678
rwrist 158.386
rhand -10.0505 14.8435
rfingers 7.12502
rthumb 15.935 -14.521
lclavicle -8.84592e-015 1.74931e-014
lhumerus -42.1428 -35.951 94.3744
lradius 40.7247
lwrist -19.3183
lhand -39.2999 5.81732
lfingers 7.12502
lthumb -12.2928 35.436
rfemur -8.33038 -12.9721 13.2687
rtibia 72.4143
rfoot -18.0139 1.40712
rtoes -14.9914
lfemur 2.34331 7.91937 -12.3661
ltibia 40.1999
lfoot -32.8204 -7.58672
ltoes -6.70284
210
root 2.51971 16.181 -3.01978 -12.2818 -0.757876 -1.79117
lowerback 9.12475 0.202128 0.428705
upperback 7.54109 0.307455 -0.946743
thorax 2.72448 0.195542 -1.23989
lowerneck -9.53408 -1.58401 -8.17442
upperneck 46.6313 3.36085 -6.93305
head 20.1309 -1.05309 -1.41929
rclavicle 2.03257e-014 2.78299e-015
rhumerus -18.2691 -5.84653 -51.4636
rradius 116.678
rwrist 158.386
rhand -10.0505 14.8435
rfingers 7.12502
rthumb 15.935 -14.521
lclavicle 6.01324e-015 3.57812e-015
lhumerus -41.9727 -35.6447 94.4777
lradius 40.7969
lwrist -18.5429
lhand -39.5488 6.22829
lfingers 7.12502
lthumb -12.5328 35.8324
rfemur -9.70281 -13.1295 13.8636
rtibia 70.9409
rfoot -18.9675 1.01899
rtoes -14.8429
lfemur 3.45522 7.5989 -12.2804
ltibia 39.1615
lfoot -33.0713 -7.17091
ltoes -7.21769
